<?xml version="1.0" encoding="utf-8"?>
<!DOCTYPE svg PUBLIC "-//W3C//DTD SVG 1.1//EN" "http://www.w3.org/Graphics/SVG/1.1/DTD/svg11.dtd">
<svg version="1.1" id="Layer_1" xmlns="http://www.w3.org/2000/svg" xmlns:xlink="http://www.w3.org/1999/xlink" x="0px" y="0px"
	 viewBox="-661.3391 -667.4796 1668.8871 1630.6597" enable-background="new -661.3391 -667.4796 1668.8871 1630.6597"
	 xml:space="preserve">
<g id="_x23_ffffffff">
</g>
<g id="_x23_281e22ff">
	<path fill="#281E22" d="M-144.9347-645.5943c14.0766-0.1198,27.9137-2.396,41.571-5.6306
		c12.2796-4.852,17.3113,10.6623,24.7988,16.9518c10.3629-1.3178,20.7256-2.8153,31.1483-4.2529
		c6.2896,19.5875,13.9568,40.8522,32.6459,51.9937c32.2265,22.6425,73.6777,10.0034,110.0972,11.1415
		c30.729,5.3311,50.7958,36.2398,83.1421,36.8987c18.2097,3.4143,35.8205-4.0732,53.9704-3.5341
		c18.5692,4.1331,34.8023,16.1132,54.0902,17.7305c18.9886-2.8752,29.8904-21.8038,47.6211-27.7339
		c12.6989-4.3129,26.1765-5.8104,39.4146-8.0267c13.7771-23.541,35.2215-40.6725,55.0486-58.8224
		c12.0999-9.8836,23.481-22.1632,39.6543-24.9186c-22.7622,25.0385-40.4329,54.869-47.022,88.4133
		c-15.3944,47.8007-25.5776,105.9043,5.7505,149.6317c29.1117,36.8389,68.0471,64.6328,96.6196,102.0706
		c29.1716,36.2997,59.1818,75.7143,64.3931,123.5749c2.5158,39.4745,4.4327,81.944-15.5142,117.6448
		c-26.3563,59.8407-90.989,94.3435-153.645,101.8311c-19.7672-5.8104-36.779-18.4494-56.7858-23.7207
		c54.5694,44.4462,126.0309,79.0688,197.8517,61.9972c-8.3262,14.0766-25.9369,14.1365-39.9537,18.0899
		c-19.7671,5.9302-40.3729,2.995-60.4995,1.4377c-0.7787-4.0732-1.5575-8.1465-2.3361-12.1598
		c-2.1564,2.5158-6.4094,7.4876-8.5059,9.9435c-16.1133-2.5758-31.8073-6.7089-47.8008-9.704
		c18.3296,16.8321,40.6726,28.2132,64.0937,36.2399c-27.2548,17.4311-58.9423-2.2163-86.0772-10.0034
		c6.8286,30.5493,11.441,73.0188-18.2697,92.8459c14.9752-33.2448-0.5391-68.5862-23.1216-93.9841
		c-2.0366,35.0419-11.8003,72.959-41.1517,95.1821c-21.085,16.832-55.8873,23.7207-76.9123,3.3544
		c17.8503-1.0782,38.1567-1.3177,50.9754-15.9335c21.4444-18.2697,24.6192-49.418,17.1916-75.1154
		c-12.699,10.9019-26.2365,22.4627-44.0869,21.8638c4.0732-8.8054,8.5657-17.3712,13.2979-25.8172
		c0.1197-5.3312,0.2994-15.9935,0.4193-21.3246c-10.5425,7.847-22.4627,13.2979-34.8022,17.6708
		c0.8386-9.9435,2.0965-19.7672,3.2946-29.5909c-54.3299-6.8886-113.8111-17.9702-164.547,9.7637
		c-14.2564,9.5841-31.4478,10.8421-48.1002,9.0451c5.1515-6.2297,10.6023-12.1598,16.1133-18.09
		c-13.9569,0.6589-28.6924,1.797-41.9304-3.5941c-6.7089-9.4642-12.1599-19.7073-18.3297-29.4711
		c-7.2479-5.0915-14.3761-10.243-21.2646-15.8138c8.6256-1.7371,17.2513-3.3544,25.9369-4.9118
		c2.2763-14.5558,7.4876-28.2132,16.1133-40.1933C-6.5644,2.5901-2.6708,17.9247,6.6138,30.8033
		c2.5758-6.1698,5.0916-12.3994,7.5475-18.6291C17.8751,9.4188,25.2429,3.848,28.8968,1.0327
		c2.3361,7.4876,4.8519,14.9751,7.5474,22.3429c5.7505-3.4742,11.0816-7.5475,16.5326-11.441
		c13.3578,8.2663,26.0567,18.3894,41.4512,22.6424c15.6341,2.2763,31.8671-1.7372,45.6442-9.1648
		c9.8237-7.0683,13.5975-19.2281,18.8687-29.6508c-16.892-9.2247-37.1983-14.2563-49.3581-30.2498
		C91.9721-52.3987,85.9222-84.4455,57.6491-89.1177C47.5259-91.4538,42.8536-80.492,36.4442-75.101
		c-3.8935-7.3677-7.847-14.7355-11.7405-22.1033c-6.7088,4.792-13.4178,9.5841-20.1865,14.3162
		c-1.6773-10.4826-3.055-21.0251-4.253-31.5676c-10.243,8.0267-19.5875,17.1915-27.6142,27.4345
		c-1.797-2.3361-5.5108-6.8886-7.3079-9.1648c0.7787-8.6257,1.4376-17.2514,1.9767-25.8771
		c-13.1781,14.3762-18.03,33.6641-27.9137,50.0769c-7.2479-19.8271-3.5341-40.4329,1.3778-60.26
		c-6.649,3.5941-13.2381,7.1881-19.8272,10.7222c1.0183-8.5059,2.1564-17.0117,3.2945-25.5176
		c9.644-5.6307,19.4078-11.1415,29.2315-16.4727c-6.05-16.8321-20.486-28.2731-29.1117-43.4879
		c-7.1282-18.3895-10.3029-39.175-4.6722-58.3432c5.2712-14.8554,19.5875-33.2449,36.8988-21.744
		c27.1948,18.9885,48.8788,45.7042,78.7693,61.0387c8.6856-13.4177,10.4227-29.8904,18.2697-43.4879
		c15.1548-13.2979,32.3463,4.4327,45.2848,12.5193c16.5925,14.3761,38.8755,16.3528,58.2833,24.8587
		c-30.0701,9.2846-58.7625-6.8287-84.8791-19.7073c-9.3445,17.7306-1.1381,47.0819-24.9187,54.0303
		c-25.5775-0.3594-44.1467-19.7073-63.1352-34.1433c-14.7356-11.501-22.9419-31.8073-41.8706-37.2582
		c-3.3544,31.6275,8.5059,64.0338,36.5993,80.6262c-0.2995-8.8054-0.4792-17.6108-0.5391-26.4162
		c22.1632,15.2148,27.3147,42.4096,40.2532,64.2734c0.8985-9.2247,1.797-18.5093,2.7554-27.734
		c24.7988,26.536,59.3615,46.5428,96.8594,41.9304c8.0865-24.1998,34.922-16.233,54.0902-21.8038
		c8.9251-3.2945,17.0716-8.3262,25.5775-12.5792c0.1198,4.9718,0.2995,14.9153,0.3595,19.8271
		c9.1048,1.5574,18.1499,3.7737,27.4344,4.3129c15.9935-3.3545,27.3147-15.6341,39.4745-25.5177
		c0.8985,20.0068-7.6074,37.4379-20.6058,51.9937c12.3395-3.2946,24.2598-7.9069,35.9404-13.0583
		c1.3178,4.193,3.8935,12.5791,5.1514,16.7123c44.9853-22.1033,76.0738-62.7758,111.3552-96.9192
		c15.4544-13.7772,26.6558-33.0652,46.1834-41.571c-0.2397,23.3612-17.0118,40.4329-29.2315,58.5828
		c-27.0751,37.9171-48.22,79.6678-75.8941,117.2255c28.1533-12.0999,54.2699-29.7706,70.503-56.3664
		c11.2015,10.4227-1.198,24.5592-2.1563,36.2998c23.1815-15.5742,37.8571-39.3547,52.4729-62.4164
		c1.198,10.9618,2.2163,21.9835,3.1148,33.0052c23.1815-27.734,38.3364-62.6561,39.8339-98.9558
		c6.7688,7.188,13.2381,14.6756,19.9469,21.9835c-0.8386-18.5692-11.3811-33.6042-24.1999-46.0635
		c-5.2712,32.9453-9.7638,67.5679-30.6092,94.9424c-0.9583-4.6124-2.995-13.837-3.9534-18.3895
		c-10.6024,8.0866-21.6841,15.5741-33.185,22.283c-7.9068-5.2713-15.8138-10.4826-23.6607-15.7539
		c23.1216-30.6691,49.7774-63.6743,49.8972-104.2271c-38.6958,13.9568-66.1902,45.6443-86.2568,80.2069
		c-40.7924-43.2482-80.9856-92.0073-97.2188-150.5901c-6.3494-32.9453-3.6539-67.448,2.6357-100.2137
		c-11.3811,0.7188-22.7622,1.198-34.2032,1.5574c-14.2564-12.639-23.4811-30.4295-38.7557-41.8106
		c-21.1449-16.293-48.6992,14.3163-66.1902-9.7039c-16.3528,3.6539-35.8805,9.9435-50.3764-2.2762
		c-20.7855-16.1732-40.1334-38.8156-68.7659-38.9953c-18.2098-4.9717-37.9171,3.1747-55.2882-3.2945
		c-12.2198-21.3845-21.6241-44.9255-40.373-61.8174c-8.6257,10.4826-17.7306,20.5459-27.8538,29.5909
		c-2.2163,15.3945-1.3777,30.9087-0.7188,46.3032c-25.5775-19.4078-20.1865-55.7675-10.0633-82.1237
		c-2.6356-1.6772-7.9069-4.9717-10.4826-6.649c-24.0201,11.9202-26.0567,40.1933-28.0335,63.7343
		c-11.5608-12.04-13.4776-28.7523-16.3528-44.4462c-16.0534,14.3762-13.6573,36.8987-17.7306,56.1868
		c-1.0782,0.3594-3.1747,1.198-4.2529,1.5574c-18.8088-30.5493-5.1515-68.107,11.0816-96.4999
		C-167.9964-628.9419-155.4173-635.4711-144.9347-645.5943 M163.6133-93.7301c17.9102,10.1232,38.4562,5.3312,57.6244,2.4559
		C202.4288-96.4256,182.7814-96.3058,163.6133-93.7301z"/>
	<path fill="#281E22" d="M539.6693-634.3929c35.4611-10.3029,73.2584-24.1998,110.1572-12.6989
		c-10.1232,9.8836-24.9186,10.4227-37.3181,15.694c-34.6825,12.9385-66.3699,38.9354-80.3267,73.9174
		c24.3196-10.5425,48.2799-30.0103,76.4332-21.085c-5.9901,14.0167-20.0068,23.0617-25.5176,37.6176
		c45.6442-6.4094,94.2236-17.0118,138.7897,0.4792c22.2231,8.9252,48.6393,11.0817,66.6094,28.2132
		c-40.6126-3.8936-78.6495,14.8554-113.2121,33.9637c14.2563,4.9717,29.3513,8.9252,41.511,18.3895
		c-0.4791,11.9202-15.9335,14.7356-22.7621,22.5226c34.1432,0.1198,65.1119,15.4543,95.4816,29.1117
		c12.7589,7.248,26.5359,14.5558,35.1616,26.8954c-27.3146-3.8936-56.2467-5.6306-80.0273,11.0217
		c10.842,6.2896,21.8039,12.5192,32.1068,19.8271c-13.9569,8.7455-28.1533,27.734-46.6027,20.1865
		c-18.3895-11.2014-28.8721-34.2032-51.3348-38.8156c-32.8854-5.2114-66.2501,13.5974-82.1837,42.2898
		c-27.4943-37.0785-58.0437-80.2668-106.7428-88.4732c-18.9885-2.5757-24.0801,18.2098-29.7706,31.5077
		c-38.9354-36.4196-40.4929-95.2419-30.8489-144.1807C441.7317-581.2011,489.8918-617.9801,539.6693-634.3929z"/>
	<path fill="#281E22" d="M606.099-300.9861c1.2579-23.1216,15.2747-47.561,39.4146-52.2333
		c35.2814-11.0816,65.3516,16.6524,90.5098,37.1983c25.1583-5.8104,49.8973-15.4544,75.8941-15.7539
		c20.6658,3.2346,41.6908,8.6257,58.7625,21.2048c14.5558,10.243,30.9087,22.283,49.7773,18.9885
		c12.5192-1.198,19.348-12.4593,27.6143-20.4261c10.9018,22.2831,4.4326,47.2616-5.8104,68.4065
		c17.1315,2.6357,34.3829,1.1381,49.5977-7.7871c-0.7787,16.5925-10.3029,30.9087-20.9652,42.9488
		c-11.7407,9.5242-27.7939,9.1049-41.8707,11.6806c-8.5657,19.0484-26.2363,37.0186-48.9986,32.2864
		c-27.6741-5.5708-57.205-4.6123-82.3633,9.3445c-10.902,9.644-16.233,23.7207-25.6375,34.5627
		c-8.7454,6.8886-20.1265,8.3861-30.4294,11.441c-7.4875-2.7554-14.9153-5.5108-22.343-8.2064
		c6.8885,30.1899,23.8405,56.4264,33.4844,85.598c-34.1432-8.2064-55.5278-37.6176-70.5629-67.1486
		c-0.4791,25.6973,9.3445,49.7175,15.5742,74.2168c-32.1067-19.6474-38.8755-58.5229-52.3531-90.6296
		c-7.8469,23.9004-3.7138,49.418-4.6722,74.0371c-33.3646-30.8488-25.6375-82.0638-6.9485-118.723
		c7.248-1.9168,13.8371-5.9301,3.3545-8.9252l-3.1748-6.1099c17.4311-1.4376,34.383-6.5891,49.1185-15.9934
		c33.6641,8.446,80.5664-1.6772,91.1089-39.3547c28.3329,9.5242,57.7441,14.0168,87.6345,11.3212
		c-22.7022-3.6539-46.0634-5.2113-67.6277-13.837c-15.5142-5.3311-30.4296-13.8969-47.1417-14.2563
		c-17.9702,2.396-30.1899,17.0117-45.225,25.4577c-29.5909,13.8969-63.9139,5.0316-92.6063-6.7688
		c4.3129-6.1698,8.9851-12.1598,13.1782-18.3895c-23.3612-14.8553-41.9304-36.5993-47.9205-64.2134
		C585.1338-308.2341,595.6762-304.7,606.099-300.9861z"/>
	<path fill="#281E22" d="M-524.1055-112.2393c13.7771-27.0152,41.0918-52.7724,73.6178-49.8373
		c76.6129,0.4792,146.5768,37.7973,209.4724,78.1104c33.4245,19.1083,60.9788,46.1834,88.8326,72.3
		C-100.0692,27.3291-55.3833,74.95-6.0851,117.2998c32.6458,25.6973,64.453,52.5927,99.4949,74.9956
		c38.7557,27.4944,76.9123,56.2467,119.5615,77.5114c1.797-4.4327,5.3911-13.4178,7.1881-17.8505
		c20.0068,21.6841,43.1883,40.3132,69.6045,53.611c-1.0183-8.3262-1.9767-16.6523-2.6955-25.0384
		c28.0334,12.6989,57.0253,24.2597,87.7543,28.0934c-1.5574-5.7505-4.7921-17.3113-6.4093-23.0618
		c31.5077,12.2198,64.6926,17.491,98.4765,15.1548c-4.9118-5.3311-9.8237-10.7222-14.6157-16.0533
		c57.3248-6.3495,118.3636-25.5776,154.4836-73.4382c27.7939-37.6176,48.2798-81.1652,56.4264-127.4085
		c11.0217-35.4013,11.9202-73.0788,4.9717-109.3785c13.1182,10.3029,26.3562,20.6058,40.5526,29.531
		c0.719-11.6806,1.0784-23.4212,1.6174-35.0418c16.9518,5.1514,34.2032,9.644,51.6943,12.8187
		c-1.0784-22.7023-7.0684-44.626-12.9385-66.4298c23.1215-8.6257,44.566-24.5592,53.1318-48.5195
		c0.5991-6.4094,11.7405-17.2513,12.8786-5.3911c15.0949,57.6843,57.6243,106.0241,59.3615,167.4222
		C857.382,13.4321,847.139-8.791,825.8742-19.5731c1.2581,17.2514,3.714,34.3829,4.6722,51.6942
		c-4.3726-1.2579-13.1181-3.7138-17.4909-4.9118c4.9119,36.0003,9.7039,72.7194,4.6722,109.0191
		c-2.396,2.0965-7.1881,6.3495-9.5841,8.5059c-2.2762-5.0916-4.5525-10.1831-6.7688-15.2747
		c-3.0548,24.3796-5.6904,48.9388-11.9801,72.8392c-15.5143,58.2234-47.8006,109.9775-82.4831,158.4969
		c-30.6093,36.6592-65.4714,71.1021-108.5998,92.6662c-21.9236-22.4627-53.7308-27.9136-83.3817-32.0468
		c-23.481-3.055-47.6209-1.6772-70.2035,5.9301c50.7358-2.5757,104.287,3.7738,146.6966,33.9038
		c19.1682,16.4727,28.3928,42.4695,50.6758,55.8274c17.4311,10.842,32.526,30.3696,29.4113,51.9937
		c-7.1282,17.2514-27.9137,20.3063-41.571,30.6691c-25.0384,21.5044-58.2833,2.7555-85.3583-4.2529
		c-49.1784-11.5609-100.0939-16.4727-150.65-14.0767c-1.4975,2.0966-4.5524,6.2896-6.0499,8.3862
		c8.7454,10.2429,17.5508,22.283,31.8072,24.7988c13.7772,5.6307,35.6408,2.396,39.4146,21.0251
		c15.6341,44.8656-32.2864,83.5015-73.1387,88.0539c10.3029-17.491,29.7706-28.2731,36.2997-48.2799
		c-7.188-12.4594-17.0716-23.1216-25.7573-34.5027c3.4144,10.7821,12.3396,22.882,1.9767,32.8255
		c-15.5142,16.4727-30.1898,36.5394-52.8922,43.1284c-16.832,5.3911-34.5626,1.4376-51.0352-3.1148
		c24.2596-12.04,53.3115-20.0667,66.25-46.4229c-4.9119-4.9119-9.7638-9.8238-14.6158-14.7356
		c-1.0183-5.0916-2.995-15.2147-4.0133-20.2465c-3.8936,16.7123-1.9169,40.1334-21.0251,47.6809
		c-28.4528,10.1232-66.6694,4.8519-85.8376-20.1266c24.08-1.0782,53.611,8.6257,72.6594-11.441
		c1.6772-7.7871-4.4926-14.5558-6.7088-21.5641c2.8752-4.6724,5.7505-9.4045,8.6855-14.0767
		c-3.4143-2.2763-10.1831-6.8885-13.5375-9.1648c-1.6772-7.9668-3.3544-15.8737-5.1515-23.7207
		c1.3777-8.386,2.6955-16.7722,3.8935-25.1582c-10.7222-12.9386-26.4161-11.0217-41.2115-8.1465
		c5.2712-8.0865,10.243-17.8504,20.426-20.4261c28.4528-10.9019,56.1868,6.649,83.6812,11.9202
		c18.4494,3.8936,36.4196-3.5941,52.7724-11.381c43.9072,24.8587,96.3202,24.1399,145.3189,24.1399
		c-34.7424-14.2563-71.6412-22.1633-108.8994-25.6974c-36.719-3.4742-75.4148-14.4959-101.5914-41.8705
		c-86.1371-11.9801-166.2841-48.9389-239.3628-94.8227C36.7438,339.1715-30.5845,286.519-93.6598,229.0743
		c-75.1753-75.4148-158.1376-142.6833-244.694-204.5007c-27.135-19.4677-61.2784-26.9553-94.1638-27.7939
		c-52.413,6.1099-91.2286,60.5596-79.9673,112.4334c-3.7139-3.7737-7.3678-7.4876-11.0217-11.2014
		C-531.2337,28.8266-553.0974-45.0908-524.1055-112.2393z"/>
	<path fill="#281E22" d="M-610.0629-53.8962c18.2098-46.1834,56.9655-82.9024,101.6513-103.1488
		c-21.744,27.135-47.4413,53.7309-53.671,89.4915c-8.446,56.5462-5.2712,117.4651,20.3662,169.3989
		c16.8321,36.4196,52.7125,56.9056,86.9158,74.3965c-10.6024,6.7688-23.1815,7.3079-35.3413,8.3861
		c35.4612,36.8987,87.994,44.2665,134.9561,56.1867c-8.6856,5.8703-17.5509,11.5609-26.4162,17.2514
		c26.9553,13.2381,56.666,18.3296,85.8975,24.0201c-7.3078,10.3029-20.1266,11.0816-31.3879,13.7173
		c46.8423,23.0018,94.044,45.0453,139.9278,69.8441C-132.715,398.593-76.4085,434.6531-44.721,491.9181
		c23.6607,29.9503,27.8537,69.5446,29.4111,106.3835c-2.995,29.1716-9.2247,64.513-39.3546,77.8109
		c-26.2964,17.7905-59.0021,12.2197-88.4133,8.3861l-3.1148-1.1381c-8.8054,1.0183-13.3579-7.7271-21.3845-8.9252
		c-37.6176-11.0815-68.107-38.5759-106.1439-48.8788c-47.8606-19.2281-103.9875-25.338-152.0876-3.4742
		c-29.1117,14.436-42.6493,44.9254-56.067,72.5995c-23.6607-63.0154,23.8404-140.9461,90.7494-148.7931
		c62.2367-8.0866,124.713,11.6806,179.6419,39.8339c35.5809,19.3479,76.0737,43.7275,117.8245,29.1717
		c-3.1748,19.4677-13.5975,36.5393-27.4345,50.3165c-10.4227,0.2995-13.8969,3.5341-10.3628,9.7039
		c14.5558,10.5425,28.0335-10.7222,39.9536-17.6108c6.4693-17.7305,9.9435-36.7789,1.6173-54.5694
		c-25.7572-60.9189-82.2435-106.623-145.3787-124.5932c-45.9437-11.6207-94.2236-16.293-137.0525-38.1567
		c-62.3566-23.4211-114.4701-66.4297-162.0911-111.8344c-52.6526-61.3382-100.2736-132.8595-109.079-215.1629
		C-652.2928,55.3626-632.8251-1.7826-610.0629-53.8962z"/>
	<path fill="#281E22" d="M-466.7807,720.1992c-9.5242-38.6359,20.9652-74.2767,54.0304-89.4315
		c-2.7555,13.1182-7.1881,25.9968-8.5059,39.4146c5.5708,32.8255,23.9004,62.1768,46.1235,86.3766
		c25.0385,28.0334,35.8205,68.1069,27.075,104.7661c-3.8336,27.1949-25.2181,46.8423-45.7641,62.8358
		c-35.581,33.3645-91.588,27.075-132.7397,8.1464c-37.977-19.0483-81.1653-46.0037-87.7544-91.8276
		c25.7573,17.0715,48.5195,40.373,79.3084,48.2799c24.8588,7.6073,55.7076,5.8701,74.6361-13.7773
		c14.1365-17.1315,12.3994-40.6126,11.9202-61.3981c27.9736,11.0816,42.4096,41.6909,35.7008,70.7426
		c16.9518-18.689,24.08-47.3214,8.9252-69.3049C-421.2562,780.8187-461.9287,760.8718-466.7807,720.1992z"/>
</g>
</svg>
